<svg width="20" height="23" viewBox="0 0 20 23" fill="none" xmlns="http://www.w3.org/2000/svg">
<g clip-path="url(#clip0_338_5017)">
<path d="M1.60042 18.6185H18.3996C19.3958 18.6185 20 18.094 20 17.2964C20 16.2038 18.9189 15.2204 18.0074 14.2479C17.3079 13.4941 17.1171 11.9425 17.0323 10.6859C16.9581 6.49026 15.8771 3.6057 13.0578 2.55677C12.655 1.12541 11.5634 0 9.99471 0C8.43666 0 7.33439 1.12541 6.94223 2.55677C4.12294 3.6057 3.04186 6.49026 2.96767 10.6859C2.88288 11.9425 2.6921 13.4941 1.99257 14.2479C1.07048 15.2204 0 16.2038 0 17.2964C0 18.094 0.593534 18.6185 1.60042 18.6185ZM9.99471 23C11.7965 23 13.1108 21.6451 13.2485 20.1154H6.75145C6.88924 21.6451 8.20349 23 9.99471 23Z" fill="#D5D5D5"/>
</g>
<defs>
<clipPath id="clip0_338_5017">
<rect width="20" height="23" fill="white"/>
</clipPath>
</defs>
</svg>
