<svg width="393" height="852" viewBox="0 0 393 852" fill="none" xmlns="http://www.w3.org/2000/svg">
<path d="M-316.148 863C-330.427 863 -339.351 846.98 -330.427 834.52L-130.517 556.84L-119.808 540.82C-109.098 526.58 -87.6794 533.7 -87.6794 551.5V562.18C-87.6794 579.98 -110.883 587.1 -119.808 572.86L-130.517 556.84L-321.502 286.28C-330.427 273.82 -321.502 257.8 -307.223 257.8H-157.291C-151.936 257.8 -146.581 261.36 -143.012 264.92L-3.78873 464.28C5.1358 476.74 -3.78873 492.76 -18.068 492.76H-32.3472C-46.6265 492.76 -55.551 476.74 -46.6265 464.28L296.076 -19.88C299.646 -23.44 305 -27 312.14 -27H453.148C467.427 -27 476.351 -10.98 467.427 1.48L55.1132 565.74C44.4037 579.98 22.9849 572.86 22.9849 555.06V544.38C22.9849 526.58 44.4037 519.46 55.1132 533.7L271.087 834.52C280.012 846.98 271.087 863 256.808 863H103.306C97.951 863 92.5963 859.44 89.0265 855.88L-51.9813 645.84C-59.1209 633.38 -51.9812 617.36 -37.7019 617.36H-25.2076C-10.9284 617.36 -2.00378 633.38 -10.9283 645.84L-150.151 855.88C-153.721 861.22 -159.076 863 -164.43 863H-316.148Z" fill="url(#paint0_linear_338_977)" fill-opacity="0.1"/>
<defs>
<linearGradient id="paint0_linear_338_977" x1="284" y1="-110" x2="68.5" y2="863" gradientUnits="userSpaceOnUse">
<stop stop-color="white"/>
<stop offset="1" stop-color="white" stop-opacity="0"/>
</linearGradient>
</defs>
</svg>
