<svg width="28" height="27" viewBox="0 0 28 27" fill="none" xmlns="http://www.w3.org/2000/svg">
<path d="M9.76705 7.86081C7.362 7.87769 5.16792 7.60765 3.06667 6.82284C2.18903 6.49373 1.34516 6.07179 0.678493 5.37137C-0.216017 4.44311 -0.216017 3.38826 0.703809 2.47687C1.60676 1.57392 2.74599 1.11823 3.93586 0.763801C6.2734 0.0718213 8.67001 -0.105393 11.1004 0.0549437C13.0582 0.189964 14.9738 0.49376 16.7544 1.35451C17.3957 1.66675 18.0286 2.08869 18.5349 2.58658C19.3957 3.43889 19.3366 4.4853 18.5012 5.34606C17.6151 6.26588 16.4674 6.72158 15.286 7.08444C13.4295 7.66672 11.5308 7.87769 9.76705 7.86081Z" fill="#005D8C"/>
<path d="M0.290478 7.27008C3.60692 9.32071 7.25247 9.64982 11.0415 9.52324C11.2103 9.5148 11.2946 9.72577 11.1596 9.83547C10.0541 10.7553 9.00061 12 8.52672 13.1435C8.4339 13.3291 8.34951 13.4641 8.09634 13.4473C6.03728 13.3207 4.03729 12.9578 2.17232 12.0464C1.78414 11.8608 1.41284 11.6161 1.07528 11.3545C0.374866 10.8228 -0.0301952 10.1477 0.0288763 9.22788C0.0626314 8.63717 0.0457538 8.04645 0.037315 7.43042C0.0204375 7.27852 0.172335 7.19414 0.290478 7.27008Z" fill="#005D8C"/>
<path d="M0.41688 12.9494C2.56877 14.3418 4.96538 14.8059 7.37043 15.0844C7.50545 15.1013 7.60672 15.2194 7.59828 15.3629C7.49701 16.4852 7.40418 17.5907 7.29448 18.7553C7.2776 18.8987 7.14258 19.0084 6.99912 18.9831C6.35778 18.8818 5.68267 18.7806 5.01601 18.6371C3.74176 18.3586 2.50126 17.9536 1.39578 17.2194C0.467512 16.6034 -0.0894468 15.8101 0.0118185 14.6203C0.0540123 14.1477 0.0371348 13.6751 0.028696 13.1688C0.0202572 12.9663 0.239665 12.8397 0.41688 12.9494Z" fill="#005D8C"/>
<path d="M18.0369 9.0169C13.0581 9.00002 9.04121 12.9916 9.03277 17.9789C9.01589 22.9156 13.0159 26.9746 17.9188 26.9999C22.9314 27.0168 27.0074 23.0168 27.0242 18.0633C27.0327 13.0506 23.0411 9.03378 18.0369 9.0169Z" fill="#005D8C"/>
<path d="M21.9747 21.4432C21.6491 21.7688 21.2288 21.9345 20.7789 21.97C20.2343 22.0055 19.6837 21.9996 19.1391 21.9996C17.6059 21.9996 15.9661 21.9819 14.5335 21.378C14.2257 21.2478 13.9948 21.1235 13.9711 20.7565C13.9415 20.3362 13.906 19.904 13.906 19.4837C13.906 18.5721 14.2494 17.767 14.6045 16.95C14.942 16.1627 15.2794 15.3813 15.6346 14.5999C15.6997 14.4637 15.753 14.3098 15.8359 14.1855C15.9543 14.002 16.1496 13.8599 16.3094 13.7178C16.5344 13.5165 16.7534 13.3093 16.9902 13.1199C17.2625 12.9068 17.4934 13.0074 17.742 13.191C17.9137 13.3212 18.0913 13.4455 18.263 13.5817C18.4051 13.6941 18.6182 13.8125 18.6951 13.9842C18.7543 14.1085 18.7247 14.2328 18.6774 14.3572C18.6596 14.4045 18.5767 14.517 18.5886 14.5643C18.6004 14.6235 18.6951 14.6887 18.707 14.7715C18.7247 14.8899 18.6892 15.0379 18.6182 15.1267C18.4998 15.2747 18.334 15.2392 18.1623 15.2806C17.9433 15.3339 17.7657 15.476 17.5408 15.5293C17.3869 15.5648 17.1264 15.4878 16.9961 15.553C16.8659 15.6181 16.7771 15.9022 16.7298 16.0265C16.6528 16.2101 16.5936 16.4054 16.5462 16.6008C16.4456 17.027 16.4219 17.4651 16.4456 17.9031C16.4574 18.1399 16.4811 18.3826 16.4989 18.6194C16.5166 18.8503 16.487 19.164 16.564 19.3831C16.712 19.3357 16.86 19.1285 16.9961 19.0397C17.1619 18.9332 17.3454 18.8444 17.5348 18.7852C17.89 18.6727 18.2748 18.6431 18.6478 18.7141C18.8372 18.7497 19.0148 18.8089 19.1924 18.8858C19.4233 18.9924 19.3759 19.016 19.5535 18.8444C19.8317 18.578 20.181 18.3945 20.5658 18.3649C21.288 18.3057 22.0221 18.7082 22.3181 19.3712C22.614 20.0579 22.5193 20.8985 21.9747 21.4432Z" fill="white"/>
</svg>
