<svg width="170" height="170" viewBox="0 0 170 170" fill="none" xmlns="http://www.w3.org/2000/svg">
<mask id="path-1-inside-1_541_40183" fill="white">
<path fill-rule="evenodd" clip-rule="evenodd" d="M83.7092 1.16438H8.25527C3.69602 1.16438 0 4.86039 0 9.41965V160.078C0 164.638 3.69601 168.334 8.25527 168.334H132.606C134.118 168.334 135.5 169.166 136.915 169.701C137.427 169.894 137.982 170 138.562 170H165.342C167.915 170 170 167.915 170 165.342V142.055C170 141.341 169.839 140.664 169.552 140.06C168.673 138.209 167.169 136.44 167.169 134.391V9.41964C167.169 4.86038 163.473 1.16438 158.914 1.16438H83.7092ZM153.547 137.397C156.372 137.397 158.662 135.107 158.662 132.283V112.395C158.662 111.945 158.777 111.503 158.997 111.112L161.189 107.212C161.19 107.211 161.189 107.21 161.188 107.21C161.187 107.21 161.186 107.209 161.186 107.208V69.0881C161.186 67.6712 160.821 66.2781 160.127 65.0429L159.715 64.3112C159.021 63.076 158.656 61.6829 158.656 60.266V18.3702C158.656 13.8109 154.96 10.1149 150.401 10.1149H99.7815C98.1702 10.1149 96.6843 9.24545 95.895 7.84076C95.1056 6.43607 93.6197 5.56663 92.0084 5.56663H75.1503C73.539 5.56663 72.0531 6.43607 71.2637 7.84076C70.4743 9.24545 68.9884 10.1149 67.3771 10.1149H16.7577C12.1984 10.1149 8.50241 13.8109 8.50241 18.3702V60.266C8.50241 61.6829 8.1377 63.076 7.44337 64.3112L7.03203 65.0429C6.3377 66.2781 5.97299 67.6712 5.97299 69.0881V105.048C5.97299 106.465 6.3377 107.858 7.03202 109.093L7.44338 109.825C8.1377 111.06 8.50241 112.454 8.50241 113.87V140.433C8.50241 143.258 10.7923 145.548 13.6171 145.548H75.6483C78.0181 145.548 80.0776 147.176 80.6248 149.482L82.3171 156.614C82.8643 158.92 84.9237 160.548 87.2936 160.548H128.789C131.614 160.548 133.904 158.258 133.904 155.433V142.055C133.904 139.483 135.989 137.397 138.562 137.397H153.547Z"/>
</mask>
<path fill-rule="evenodd" clip-rule="evenodd" d="M83.7092 1.16438H8.25527C3.69602 1.16438 0 4.86039 0 9.41965V160.078C0 164.638 3.69601 168.334 8.25527 168.334H132.606C134.118 168.334 135.5 169.166 136.915 169.701C137.427 169.894 137.982 170 138.562 170H165.342C167.915 170 170 167.915 170 165.342V142.055C170 141.341 169.839 140.664 169.552 140.06C168.673 138.209 167.169 136.44 167.169 134.391V9.41964C167.169 4.86038 163.473 1.16438 158.914 1.16438H83.7092ZM153.547 137.397C156.372 137.397 158.662 135.107 158.662 132.283V112.395C158.662 111.945 158.777 111.503 158.997 111.112L161.189 107.212C161.19 107.211 161.189 107.21 161.188 107.21C161.187 107.21 161.186 107.209 161.186 107.208V69.0881C161.186 67.6712 160.821 66.2781 160.127 65.0429L159.715 64.3112C159.021 63.076 158.656 61.6829 158.656 60.266V18.3702C158.656 13.8109 154.96 10.1149 150.401 10.1149H99.7815C98.1702 10.1149 96.6843 9.24545 95.895 7.84076C95.1056 6.43607 93.6197 5.56663 92.0084 5.56663H75.1503C73.539 5.56663 72.0531 6.43607 71.2637 7.84076C70.4743 9.24545 68.9884 10.1149 67.3771 10.1149H16.7577C12.1984 10.1149 8.50241 13.8109 8.50241 18.3702V60.266C8.50241 61.6829 8.1377 63.076 7.44337 64.3112L7.03203 65.0429C6.3377 66.2781 5.97299 67.6712 5.97299 69.0881V105.048C5.97299 106.465 6.3377 107.858 7.03202 109.093L7.44338 109.825C8.1377 111.06 8.50241 112.454 8.50241 113.87V140.433C8.50241 143.258 10.7923 145.548 13.6171 145.548H75.6483C78.0181 145.548 80.0776 147.176 80.6248 149.482L82.3171 156.614C82.8643 158.92 84.9237 160.548 87.2936 160.548H128.789C131.614 160.548 133.904 158.258 133.904 155.433V142.055C133.904 139.483 135.989 137.397 138.562 137.397H153.547Z" fill="#015C8B"/>
<path d="M158.997 111.112L160.072 111.716L158.997 111.112ZM161.189 107.212L162.264 107.817L162.266 107.813L161.189 107.212ZM160.127 65.0429L159.052 65.6472L160.127 65.0429ZM159.715 64.3112L160.79 63.7069V63.7069L159.715 64.3112ZM71.2637 7.84076L72.3387 8.44487L71.2637 7.84076ZM7.44337 64.3112L6.36843 63.7069L7.44337 64.3112ZM7.03203 65.0429L8.10696 65.6472H8.10697L7.03203 65.0429ZM7.03202 109.093L8.10696 108.489L8.10696 108.489L7.03202 109.093ZM7.44338 109.825L6.36844 110.43L6.36844 110.43L7.44338 109.825ZM80.6248 149.482L79.4249 149.766L80.6248 149.482ZM82.3171 156.614L83.5169 156.329L82.3171 156.614ZM169.552 140.06L170.666 139.531L169.552 140.06ZM136.915 169.701L137.351 168.547L136.915 169.701ZM8.25527 2.39752H83.7092V-0.0687501H8.25527V2.39752ZM1.23313 9.41965C1.23313 5.54144 4.37706 2.39752 8.25527 2.39752V-0.0687501C3.01498 -0.0687501 -1.23313 4.17935 -1.23313 9.41965H1.23313ZM1.23313 160.078V9.41965H-1.23313V160.078H1.23313ZM8.25527 167.1C4.37705 167.1 1.23313 163.957 1.23313 160.078H-1.23313C-1.23313 165.319 3.01497 169.567 8.25527 169.567V167.1ZM132.606 167.1H8.25527V169.567H132.606V167.1ZM138.562 168.767C138.133 168.767 137.726 168.689 137.351 168.547L136.479 170.854C137.128 171.099 137.831 171.233 138.562 171.233V168.767ZM165.342 168.767H138.562V171.233H165.342V168.767ZM168.767 165.342C168.767 167.234 167.234 168.767 165.342 168.767V171.233C168.596 171.233 171.233 168.596 171.233 165.342H168.767ZM168.767 142.055V165.342H171.233V142.055H168.767ZM168.438 140.588C168.649 141.031 168.767 141.528 168.767 142.055H171.233C171.233 141.154 171.03 140.297 170.666 139.531L168.438 140.588ZM165.936 9.41964V134.391H168.402V9.41964H165.936ZM158.914 2.39752C162.792 2.39752 165.936 5.54142 165.936 9.41964H168.402C168.402 4.17934 164.154 -0.0687501 158.914 -0.0687501V2.39752ZM83.7092 2.39752H158.914V-0.0687501H83.7092V2.39752ZM159.895 132.283V112.395H157.428V132.283H159.895ZM159.895 112.395C159.895 112.157 159.956 111.923 160.072 111.716L157.923 110.507C157.599 111.084 157.428 111.734 157.428 112.395H159.895ZM160.072 111.716L162.264 107.817L160.114 106.608L157.923 110.507L160.072 111.716ZM162.266 107.813C162.724 106.993 162.133 105.976 161.188 105.976V108.443C160.245 108.443 159.656 107.43 160.113 106.611L162.266 107.813ZM161.188 105.976C161.861 105.976 162.419 106.521 162.419 107.208H159.953C159.953 107.896 160.512 108.443 161.188 108.443V105.976ZM162.419 107.208V69.0881H159.953V107.208H162.419ZM162.419 69.0881C162.419 67.4595 162 65.8584 161.202 64.4387L159.052 65.6472C159.642 66.6979 159.953 67.8829 159.953 69.0881H162.419ZM161.202 64.4387L160.79 63.7069L158.64 64.9154L159.052 65.6472L161.202 64.4387ZM160.79 63.7069C160.2 62.6563 159.889 61.4713 159.889 60.266H157.423C157.423 61.8946 157.842 63.4957 158.64 64.9154L160.79 63.7069ZM159.889 60.266V18.3702H157.423V60.266H159.889ZM159.889 18.3702C159.889 13.1299 155.641 8.88175 150.401 8.88175V11.348C154.279 11.348 157.423 14.4919 157.423 18.3702H159.889ZM150.401 8.88175H99.7815V11.348H150.401V8.88175ZM99.7815 8.88175C98.6159 8.88175 97.541 8.2528 96.97 7.23664L94.8199 8.44487C95.8277 10.2381 97.7246 11.348 99.7815 11.348V8.88175ZM96.97 7.23664C95.9623 5.44342 94.0654 4.33349 92.0084 4.33349V6.79976C93.174 6.79976 94.2489 7.42871 94.8199 8.44487L96.97 7.23664ZM92.0084 4.33349H75.1503V6.79976H92.0084V4.33349ZM75.1503 4.33349C73.0933 4.33349 71.1964 5.44342 70.1887 7.23664L72.3387 8.44487C72.9097 7.42871 73.9846 6.79976 75.1503 6.79976V4.33349ZM70.1887 7.23664C69.6176 8.2528 68.5427 8.88175 67.3771 8.88175V11.348C69.4341 11.348 71.331 10.2381 72.3387 8.44487L70.1887 7.23664ZM67.3771 8.88175H16.7577V11.348H67.3771V8.88175ZM16.7577 8.88175C11.5174 8.88175 7.26927 13.1299 7.26927 18.3702H9.73554C9.73554 14.4919 12.8795 11.348 16.7577 11.348V8.88175ZM7.26927 18.3702V60.266H9.73554V18.3702H7.26927ZM7.26927 60.266C7.26927 61.4713 6.95904 62.6562 6.36843 63.7069L8.51831 64.9154C9.31635 63.4958 9.73554 61.8946 9.73554 60.266H7.26927ZM6.36843 63.7069L5.95709 64.4387L8.10697 65.6472L8.51831 64.9154L6.36843 63.7069ZM5.95709 64.4387C5.15905 65.8584 4.73986 67.4595 4.73986 69.0881H7.20613C7.20613 67.8829 7.51636 66.6979 8.10696 65.6472L5.95709 64.4387ZM4.73986 69.0881V105.048H7.20613V69.0881H4.73986ZM4.73986 105.048C4.73986 106.677 5.15905 108.278 5.95708 109.698L8.10696 108.489C7.51636 107.439 7.20613 106.254 7.20613 105.048H4.73986ZM5.95708 109.698L6.36844 110.43L8.51832 109.221L8.10696 108.489L5.95708 109.698ZM6.36844 110.43C6.95904 111.48 7.26927 112.665 7.26927 113.87H9.73554C9.73554 112.242 9.31635 110.641 8.51832 109.221L6.36844 110.43ZM7.26927 113.87V140.433H9.73554V113.87H7.26927ZM13.6171 146.781H75.6483V144.315H13.6171V146.781ZM79.4249 149.766L81.1173 156.898L83.5169 156.329L81.8246 149.197L79.4249 149.766ZM87.2936 161.781H128.789V159.314H87.2936V161.781ZM135.137 155.433V142.055H132.671V155.433H135.137ZM135.137 142.055C135.137 140.164 136.67 138.63 138.562 138.63V136.164C135.308 136.164 132.671 138.801 132.671 142.055H135.137ZM138.562 138.63H153.547V136.164H138.562V138.63ZM128.789 161.781C132.295 161.781 135.137 158.939 135.137 155.433H132.671C132.671 157.577 130.933 159.314 128.789 159.314V161.781ZM75.6483 146.781C77.4468 146.781 79.0097 148.017 79.4249 149.766L81.8246 149.197C81.1455 146.335 78.5895 144.315 75.6483 144.315V146.781ZM7.26927 140.433C7.26927 143.939 10.1113 146.781 13.6171 146.781V144.315C11.4734 144.315 9.73554 142.577 9.73554 140.433H7.26927ZM157.428 132.283C157.428 134.426 155.691 136.164 153.547 136.164V138.63C157.053 138.63 159.895 135.788 159.895 132.283H157.428ZM81.1173 156.898C81.7963 159.76 84.3524 161.781 87.2936 161.781V159.314C85.4951 159.314 83.9322 158.079 83.5169 156.329L81.1173 156.898ZM170.666 139.531C170.423 139.019 170.142 138.524 169.877 138.064C169.604 137.592 169.352 137.164 169.124 136.728C168.668 135.856 168.402 135.116 168.402 134.391H165.936C165.936 135.715 166.422 136.883 166.938 137.871C167.197 138.365 167.485 138.854 167.741 139.298C168.005 139.755 168.242 140.175 168.438 140.588L170.666 139.531ZM132.606 169.567C133.139 169.567 133.697 169.714 134.353 169.967C134.68 170.093 135.007 170.236 135.366 170.392C135.715 170.544 136.093 170.708 136.479 170.854L137.351 168.547C137.03 168.426 136.705 168.285 136.35 168.131C136.003 167.98 135.626 167.815 135.241 167.666C134.473 167.37 133.584 167.1 132.606 167.1V169.567Z" fill="#A4CCE0" mask="url(#path-1-inside-1_541_40183)"/>
<path d="M99.4098 4.44816C99.2051 4.44927 99.1268 4.71573 99.2983 4.82747L101.545 6.29045C101.578 6.31227 101.617 6.32389 101.657 6.32389H110.071C110.276 6.32389 110.355 6.05638 110.183 5.94444L107.861 4.43611C107.828 4.41416 107.788 4.40258 107.748 4.4028L99.4098 4.44816Z" fill="#A4CCE0"/>
<path d="M109.477 4.44496C109.273 4.44707 109.195 4.7128 109.366 4.82426L111.618 6.29057C111.651 6.31239 111.69 6.32401 111.73 6.32401H115.826C116.031 6.32401 116.11 6.0565 115.938 5.94457L113.617 4.43654C113.583 4.4144 113.543 4.40281 113.502 4.40323L109.477 4.44496Z" fill="#A4CCE0"/>
<path d="M115.219 4.43701C115.016 4.44157 114.941 4.70576 115.111 4.8164L117.38 6.29069C117.414 6.31244 117.453 6.32401 117.493 6.32401H119.007C119.212 6.32401 119.291 6.05674 119.119 5.94469L116.805 4.43741C116.77 4.41472 116.729 4.40309 116.687 4.40402L115.219 4.43701Z" fill="#A4CCE0"/>
<path d="M164.29 63.8756C164.289 64.0877 164.007 64.1605 163.904 63.9753L162.112 60.7692C162.095 60.7384 162.086 60.7038 162.086 60.6685V48.9849C162.086 48.7723 162.369 48.6986 162.472 48.8841L164.318 52.1815C164.336 52.2126 164.345 52.2477 164.345 52.2833L164.29 63.8756Z" fill="#A4CCE0"/>
<path d="M164.294 50.107C164.292 50.3186 164.01 50.3906 163.907 50.2059L162.112 46.9997C162.095 46.9689 162.086 46.9342 162.086 46.8989V41.1156C162.086 40.903 162.369 40.8293 162.472 41.0148L164.318 44.3118C164.336 44.3432 164.345 44.3785 164.344 44.4145L164.294 50.107Z" fill="#A4CCE0"/>
<path d="M164.301 42.2535C164.297 42.4639 164.018 42.5339 163.915 42.3503L162.112 39.13C162.095 39.0992 162.086 39.0645 162.086 39.0292V36.7623C162.086 36.5496 162.369 36.4759 162.472 36.6616L164.318 39.9633C164.336 39.9952 164.345 40.0313 164.344 40.0679L164.301 42.2535Z" fill="#A4CCE0"/>
<path d="M164.29 109.333C164.289 109.121 164.007 109.048 163.904 109.233L162.112 112.439C162.095 112.47 162.086 112.505 162.086 112.54V124.223C162.086 124.436 162.369 124.51 162.472 124.324L164.318 121.027C164.336 120.996 164.345 120.961 164.345 120.925L164.29 109.333Z" fill="#A4CCE0"/>
<path d="M2.93746 108.792C2.93845 108.58 3.2205 108.507 3.324 108.692L5.11556 111.899C5.13276 111.929 5.14178 111.964 5.14178 111.999V123.682C5.14178 123.894 4.859 123.968 4.75525 123.782L2.90929 120.479C2.89193 120.448 2.8829 120.413 2.88307 120.378L2.93746 108.792Z" fill="#A4CCE0"/>
<path d="M2.93419 122.555C2.93608 122.343 3.21745 122.271 3.32072 122.456L5.11556 125.668C5.13276 125.699 5.14178 125.733 5.14178 125.769V131.551C5.14178 131.763 4.859 131.837 4.75525 131.651L2.90952 128.349C2.89202 128.317 2.88298 128.282 2.8833 128.246L2.93419 122.555Z" fill="#A4CCE0"/>
<path d="M2.92637 130.408C2.93045 130.198 3.21016 130.128 3.31288 130.312L5.11556 133.537C5.13276 133.568 5.14178 133.603 5.14178 133.638V135.899C5.14178 136.112 4.85917 136.186 4.75532 136L2.91016 132.704C2.89225 132.672 2.88319 132.636 2.8839 132.599L2.92637 130.408Z" fill="#A4CCE0"/>
<path d="M2.76266 63.5633C2.76365 63.7754 3.0457 63.8482 3.1492 63.663L4.94076 60.4569C4.95795 60.4261 4.96698 60.3915 4.96698 60.3562V48.6726C4.96698 48.46 4.68437 48.3863 4.58051 48.5718L2.73456 51.8692C2.71716 51.9003 2.7081 51.9354 2.70826 51.971L2.76266 63.5633Z" fill="#A4CCE0"/>
<path d="M2.75939 49.7947C2.76128 50.0063 3.04248 50.0783 3.14585 49.8936L4.94068 46.6874C4.95793 46.6566 4.96698 46.6218 4.96698 46.5865V40.8033C4.96698 40.5907 4.68437 40.517 4.58051 40.7025L2.73479 43.9995C2.71724 44.0308 2.70818 44.0662 2.7085 44.1021L2.75939 49.7947Z" fill="#A4CCE0"/>
<path d="M2.75156 41.9414C2.75565 42.1518 3.03518 42.2218 3.13799 42.0382L4.94068 38.8179C4.95793 38.7871 4.96698 38.7524 4.96698 38.7171V36.4559C4.96698 36.2433 4.68437 36.1696 4.58051 36.3551L2.73535 39.6511C2.71745 39.6831 2.70838 39.7193 2.7091 39.7559L2.75156 41.9414Z" fill="#A4CCE0"/>
<path d="M66.7334 4.44828C66.9383 4.44939 67.0165 4.71609 66.8447 4.82772L64.593 6.29069C64.5595 6.31244 64.5205 6.32401 64.4806 6.32401H56.0726C55.8672 6.32401 55.7879 6.05674 55.96 5.94469L58.2762 4.43636C58.31 4.41433 58.3496 4.4027 58.3899 4.40292L66.7334 4.44828Z" fill="#A4CCE0"/>
<path d="M56.6658 4.44495C56.8702 4.44707 56.9475 4.71305 56.7761 4.82438L54.5193 6.29069C54.4858 6.31244 54.4468 6.32401 54.4069 6.32401H50.3172C50.1119 6.32401 50.0325 6.05674 50.2046 5.94469L52.5204 4.43666C52.5545 4.41444 52.5944 4.40281 52.6351 4.40323L56.6658 4.44495Z" fill="#A4CCE0"/>
<path d="M50.9202 4.43687C51.1231 4.44144 51.1983 4.70538 51.0282 4.81613L48.7646 6.29045C48.7311 6.31227 48.6919 6.32389 48.6519 6.32389H47.1325C46.9271 6.32389 46.8478 6.05638 47.0201 5.94444L49.3402 4.43716C49.375 4.41456 49.4158 4.40297 49.4573 4.4039L50.9202 4.43687Z" fill="#A4CCE0"/>
<path d="M165.342 152.059C165.28 152.108 165.241 152.144 165.198 152.171C164.794 152.427 164.392 152.684 163.985 152.933C163.975 152.939 163.965 152.945 163.956 152.952C163.954 152.954 163.952 152.955 163.95 152.957C163.659 153.141 163.368 153.326 163.077 153.511C162.647 153.781 162.216 154.051 161.785 154.321C161.776 155.043 161.768 155.764 161.758 156.485C161.758 156.554 161.791 156.568 161.834 156.587C162.109 156.707 162.271 156.937 162.293 157.281C162.315 157.625 162.184 157.881 161.927 158.046C161.877 158.079 161.853 158.113 161.86 158.181C161.887 158.457 161.892 158.738 161.94 159.009C162.073 159.761 162.338 160.424 162.919 160.854C163.042 160.945 163.047 161.106 162.93 161.209C162.639 161.468 162.345 161.721 162.05 161.974C161.964 162.049 161.891 162.046 161.813 161.962C161.562 161.695 161.382 161.376 161.303 160.986C161.219 160.574 161.26 160.164 161.313 159.754C161.379 159.249 161.439 158.742 161.503 158.236C161.512 158.166 161.499 158.124 161.431 158.101C161.154 158.005 160.968 157.737 160.944 157.409C160.92 157.081 161.063 156.775 161.321 156.629C161.389 156.591 161.409 156.547 161.409 156.463C161.413 155.824 161.42 155.185 161.427 154.546C161.108 154.746 160.789 154.946 160.47 155.146C160.462 155.036 160.453 154.967 160.452 154.897C160.451 154.557 160.445 154.216 160.454 153.876C160.459 153.717 160.414 153.636 160.29 153.565C159.17 152.927 158.011 152.408 156.823 151.974C155.312 151.422 153.772 151.067 152.187 151.018C151.1 150.984 150.029 151.134 148.968 151.402C147.118 151.868 145.36 152.634 143.674 153.638C143.554 153.71 143.502 153.794 143.511 153.953C143.52 154.136 143.509 154.321 143.506 154.504C143.506 154.516 143.494 154.527 143.468 154.572C141.851 153.711 140.229 152.848 138.562 151.961C139.158 151.56 139.701 151.193 140.245 150.829C143.991 148.316 147.737 145.805 151.481 143.289C151.613 143.2 151.712 143.194 151.847 143.282C155.054 145.375 158.349 147.293 161.475 149.548C162.351 150.179 163.665 151.081 165.342 152.059Z" fill="#A4CCE0"/>
<path d="M159.589 154.304C159.586 155.837 159.587 157.37 159.587 158.903C159.587 158.956 159.579 159.008 159.571 159.107C159.377 159.021 159.212 158.946 159.044 158.874C157.75 158.319 156.43 157.874 155.077 157.554C154.204 157.347 153.325 157.209 152.435 157.165C151.472 157.118 150.517 157.214 149.57 157.405C147.866 157.748 146.207 158.289 144.594 159.023C144.537 159.049 144.476 159.066 144.392 159.095C144.388 158.994 144.382 158.915 144.382 158.837C144.381 157.373 144.384 155.908 144.377 154.443C144.377 154.262 144.422 154.164 144.562 154.081C146.103 153.165 147.712 152.474 149.405 152.061C150.822 151.714 152.249 151.647 153.686 151.903C155.701 152.263 157.609 153.01 159.441 154.042C159.543 154.099 159.59 154.166 159.589 154.304Z" fill="#A4CCE0"/>
<path d="M15.2302 159.448L15.668 157.92H14.5502V156.849H15.9754L16.4877 155.098H15.3699V154.026H16.7858L17.2236 152.508H18.4625L18.0247 154.026H19.5617L19.9902 152.508H21.2291L20.7913 154.026H21.9091V155.098H20.4839L19.9809 156.849H21.0987V157.92H19.6735L19.2357 159.448H18.0061L18.4346 157.92H16.9069L16.4691 159.448H15.2302ZM17.2143 156.849H18.7513L19.245 155.098H17.7173L17.2143 156.849ZM24.1078 159.448V153.589H22.7664V152.508H25.3747V159.448H24.1078ZM27.399 159.448V158.144H28.6286V159.448H27.399ZM27.399 155.684V154.38H28.6286V155.684H27.399ZM34.5778 159.56C34.1369 159.56 33.727 159.479 33.3482 159.317C32.9756 159.156 32.6527 158.932 32.3794 158.647C32.1124 158.355 31.9168 158.016 31.7926 157.631L32.8452 157.175C33.0129 157.572 33.2551 157.886 33.5718 158.116C33.8885 158.339 34.2456 158.451 34.643 158.451C34.8666 158.451 35.0591 158.417 35.2205 158.349C35.3882 158.274 35.5155 158.175 35.6025 158.05C35.6956 157.926 35.7422 157.777 35.7422 157.603C35.7422 157.398 35.6801 157.231 35.5559 157.1C35.4379 156.964 35.2578 156.858 35.0156 156.784L33.6836 156.355C33.1433 156.187 32.7365 155.936 32.4633 155.601C32.19 155.265 32.0534 154.871 32.0534 154.418C32.0534 154.02 32.1497 153.669 32.3422 153.365C32.5409 153.061 32.8142 152.825 33.1619 152.657C33.5159 152.483 33.9195 152.396 34.3729 152.396C34.7889 152.396 35.1709 152.471 35.5186 152.62C35.8664 152.763 36.1645 152.964 36.4129 153.225C36.6675 153.48 36.8569 153.781 36.9811 154.129L35.9378 154.595C35.8012 154.247 35.5963 153.98 35.323 153.793C35.0498 153.601 34.7331 153.505 34.3729 153.505C34.1617 153.505 33.9754 153.542 33.814 153.616C33.6525 153.685 33.5252 153.784 33.4321 153.915C33.3451 154.039 33.3016 154.188 33.3016 154.362C33.3016 154.554 33.3637 154.725 33.4879 154.874C33.6121 155.017 33.8015 155.129 34.0562 155.209L35.3323 155.61C35.885 155.79 36.298 156.038 36.5712 156.355C36.8507 156.672 36.9904 157.063 36.9904 157.529C36.9904 157.926 36.8879 158.277 36.683 158.581C36.4781 158.886 36.1955 159.125 35.8353 159.299C35.4752 159.473 35.056 159.56 34.5778 159.56ZM40.4692 159.56C39.9662 159.56 39.5129 159.445 39.1092 159.215C38.7118 158.979 38.3982 158.662 38.1684 158.265C37.9386 157.861 37.8237 157.408 37.8237 156.905C37.8237 156.402 37.9386 155.951 38.1684 155.554C38.3982 155.157 38.7118 154.843 39.1092 154.613C39.5129 154.383 39.9662 154.269 40.4692 154.269C40.8294 154.269 41.1647 154.334 41.4752 154.464C41.7858 154.588 42.0528 154.762 42.2763 154.986C42.5061 155.203 42.6707 155.464 42.77 155.768L41.6988 156.234C41.6057 155.979 41.4473 155.774 41.2237 155.619C41.0064 155.464 40.7549 155.386 40.4692 155.386C40.2022 155.386 39.9631 155.452 39.752 155.582C39.547 155.712 39.3856 155.892 39.2676 156.122C39.1496 156.352 39.0906 156.616 39.0906 156.914C39.0906 157.212 39.1496 157.476 39.2676 157.706C39.3856 157.936 39.547 158.116 39.752 158.246C39.9631 158.376 40.2022 158.442 40.4692 158.442C40.7611 158.442 41.0157 158.364 41.2331 158.209C41.4504 158.054 41.6057 157.846 41.6988 157.585L42.77 158.069C42.6707 158.355 42.5092 158.612 42.2857 158.842C42.0621 159.066 41.7951 159.243 41.4846 159.373C41.1741 159.497 40.8356 159.56 40.4692 159.56ZM43.6959 159.448V152.396H44.9162V155.377L44.7485 155.2C44.8665 154.896 45.0591 154.666 45.3261 154.511C45.5993 154.349 45.916 154.269 46.2762 154.269C46.6488 154.269 46.978 154.349 47.2636 154.511C47.5555 154.672 47.7822 154.899 47.9436 155.191C48.1051 155.476 48.1858 155.809 48.1858 156.187V159.448H46.9655V156.476C46.9655 156.253 46.9221 156.06 46.8351 155.899C46.7482 155.737 46.6271 155.613 46.4718 155.526C46.3228 155.433 46.1458 155.386 45.9409 155.386C45.7422 155.386 45.5652 155.433 45.4099 155.526C45.2547 155.613 45.1336 155.737 45.0466 155.899C44.9597 156.06 44.9162 156.253 44.9162 156.476V159.448H43.6959ZM51.6955 159.56C51.1987 159.56 50.7453 159.445 50.3355 159.215C49.9318 158.985 49.6089 158.671 49.3667 158.274C49.1307 157.877 49.0127 157.423 49.0127 156.914C49.0127 156.405 49.1307 155.951 49.3667 155.554C49.6089 155.157 49.9318 154.843 50.3355 154.613C50.7391 154.383 51.1925 154.269 51.6955 154.269C52.1923 154.269 52.6425 154.383 53.0462 154.613C53.4498 154.843 53.7696 155.157 54.0056 155.554C54.2478 155.945 54.3689 156.399 54.3689 156.914C54.3689 157.423 54.2478 157.877 54.0056 158.274C53.7634 158.671 53.4405 158.985 53.0368 159.215C52.6332 159.445 52.1861 159.56 51.6955 159.56ZM51.6955 158.442C51.9687 158.442 52.2078 158.376 52.4127 158.246C52.6239 158.116 52.7884 157.936 52.9064 157.706C53.0306 157.47 53.0927 157.206 53.0927 156.914C53.0927 156.616 53.0306 156.355 52.9064 156.132C52.7884 155.902 52.6239 155.722 52.4127 155.591C52.2078 155.455 51.9687 155.386 51.6955 155.386C51.416 155.386 51.1707 155.455 50.9596 155.591C50.7484 155.722 50.5808 155.902 50.4566 156.132C50.3386 156.355 50.2796 156.616 50.2796 156.914C50.2796 157.206 50.3386 157.47 50.4566 157.706C50.5808 157.936 50.7484 158.116 50.9596 158.246C51.1707 158.376 51.416 158.442 51.6955 158.442ZM55.2943 159.448V152.396H56.5146V159.448H55.2943ZM59.1782 159.56C58.8243 159.56 58.5169 159.501 58.2561 159.383C57.9952 159.265 57.7934 159.097 57.6506 158.88C57.5077 158.656 57.4363 158.398 57.4363 158.106C57.4363 157.827 57.4984 157.578 57.6226 157.361C57.7468 157.138 57.9393 156.951 58.2002 156.802C58.461 156.653 58.7901 156.548 59.1876 156.486L60.8456 156.215V157.147L59.4204 157.389C59.1782 157.433 58.9982 157.51 58.8802 157.622C58.7622 157.734 58.7032 157.88 58.7032 158.06C58.7032 158.234 58.7684 158.373 58.8988 158.479C59.0354 158.578 59.2031 158.628 59.4018 158.628C59.6564 158.628 59.88 158.575 60.0725 158.47C60.2712 158.358 60.4234 158.206 60.5289 158.013C60.6407 157.821 60.6966 157.61 60.6966 157.38V156.076C60.6966 155.858 60.6097 155.678 60.4358 155.535C60.2681 155.386 60.0445 155.312 59.7651 155.312C59.5043 155.312 59.2714 155.383 59.0665 155.526C58.8677 155.663 58.7218 155.846 58.6287 156.076L57.6319 155.591C57.7313 155.324 57.8866 155.094 58.0977 154.902C58.315 154.703 58.5697 154.548 58.8615 154.436C59.1534 154.324 59.4701 154.269 59.8117 154.269C60.2277 154.269 60.5941 154.346 60.9108 154.501C61.2276 154.65 61.4729 154.862 61.6467 155.135C61.8268 155.402 61.9169 155.715 61.9169 156.076V159.448H60.7618V158.581L61.0226 158.563C60.8922 158.78 60.737 158.963 60.5569 159.112C60.3768 159.255 60.1719 159.367 59.9421 159.448C59.7123 159.522 59.4577 159.56 59.1782 159.56ZM63.0447 159.448V154.38H64.1905V155.507L64.0973 155.34C64.2153 154.961 64.3985 154.697 64.6469 154.548C64.9015 154.399 65.2058 154.324 65.5598 154.324H65.8579V155.405H65.4201C65.0723 155.405 64.7929 155.514 64.5817 155.731C64.3706 155.942 64.265 156.24 64.265 156.625V159.448H63.0447Z" fill="#A4CCE0"/>
</svg>
