<svg width="16" height="22" viewBox="0 0 16 22" fill="none" xmlns="http://www.w3.org/2000/svg">
<path d="M2.54317 21.0319H12.8854C14.5469 21.0319 15.4286 20.1743 15.4286 18.4806V11.0948C15.4286 9.40104 14.5469 8.55423 12.8854 8.55423H2.54317C0.881632 8.55423 0 9.40104 0 11.0948V18.4806C0 20.1743 0.881632 21.0319 2.54317 21.0319ZM1.97802 9.37964H3.77519V5.75642C3.77519 3.05508 5.59497 1.61866 7.70863 1.61866C9.82229 1.61866 11.6647 3.05508 11.6647 5.75642V9.37964H13.4505V5.99225C13.4505 1.96168 10.67 0 7.70863 0C4.75855 0 1.97802 1.96168 1.97802 5.99225V9.37964Z" fill="#015C8B"/>
</svg>
