<svg width="276" height="106" viewBox="0 0 276 106" fill="none" xmlns="http://www.w3.org/2000/svg">
<path d="M125.376 81.4132V38.427H110.071C109.094 38.427 108.442 37.7757 108.442 36.7987V30.937C108.442 28.1689 110.559 26.0522 113.327 26.0522H153.057C155.825 26.0522 157.942 28.1689 157.942 30.937V36.7987C157.942 37.7757 157.29 38.427 156.313 38.427H141.008V81.4132H125.376Z" fill="#005D8C"/>
<path d="M50.1501 81.4132C48.8474 81.4132 48.0333 79.9478 48.8474 78.808L67.084 53.4071L68.061 51.9416C69.0379 50.639 70.9918 51.2903 70.9918 52.9186V53.8955C70.9918 55.5238 68.8751 56.1751 68.061 54.8725L67.084 53.4071L49.6616 28.6574C48.8474 27.5177 49.6616 26.0522 50.9642 26.0522H64.6416C65.1301 26.0522 65.6186 26.3779 65.9442 26.7035L78.6447 44.9401C79.4588 46.0799 78.6447 47.5453 77.3421 47.5453H76.0395C74.7369 47.5453 73.9227 46.0799 74.7369 44.9401L106 0.651306C106.325 0.325653 106.814 0 107.465 0H120.328C121.631 0 122.445 1.46544 121.631 2.60522L84.018 54.2212C83.041 55.5238 81.0871 54.8725 81.0871 53.2442V52.2673C81.0871 50.639 83.041 49.9877 84.018 51.2903L103.72 78.808C104.534 79.9478 103.72 81.4132 102.417 81.4132H88.4143C87.9258 81.4132 87.4373 81.0876 87.1117 80.7619L74.2484 61.5484C73.5971 60.4086 74.2484 58.9432 75.551 58.9432H76.6908C77.9934 58.9432 78.8075 60.4086 77.9934 61.5484L65.2929 80.7619C64.9673 81.2504 64.4788 81.4132 63.9903 81.4132H50.1501Z" fill="#005D8C"/>
<path d="M76.0398 64.3164L67.0843 53.4071L52.1043 32.2396L49.6619 28.6574C48.8478 27.5177 49.6619 26.0522 50.9645 26.0522H65.1304C65.6189 26.0522 66.1074 26.3779 66.433 26.7035L76.5283 41.5207L106.163 0.651306C106.488 0.325653 106.977 0 107.465 0H120.491C121.794 0 122.608 1.46544 121.794 2.60522L85.4837 52.9186L76.0398 64.3164Z" fill="#3596D3"/>
<path d="M48.0338 96.3932C47.7081 95.7419 47.3825 95.2535 46.7312 94.9278C46.2427 94.6022 45.5914 94.4393 44.7772 94.4393C43.9631 94.4393 43.3118 94.6022 42.8233 94.9278C42.3348 95.2535 41.8464 95.7419 41.5207 96.3932C41.1951 97.0446 41.0322 97.6959 41.0322 98.51C41.0322 99.3241 41.1951 99.9754 41.5207 100.627C41.8464 101.278 42.3348 101.767 42.9861 102.092C43.6374 102.418 44.2888 102.581 45.1029 102.581C45.5914 102.581 46.0798 102.418 46.5683 102.255C47.0568 102.092 47.5453 101.929 47.8709 101.604C48.0338 101.441 48.0338 101.441 48.0338 101.278C48.0338 101.115 48.0338 100.952 47.8709 100.952C47.7081 100.952 47.7081 100.79 47.5453 100.79C47.3825 100.79 47.2196 100.79 47.2196 100.952C47.0568 101.115 46.7312 101.278 46.4055 101.441C46.0798 101.604 45.7542 101.604 45.4285 101.604C44.7772 101.604 44.2888 101.441 43.9631 101.278C43.4746 100.952 43.149 100.627 42.9861 100.301C42.8233 99.9754 42.6605 99.487 42.6605 99.1613H48.5222C48.6851 99.1613 48.8479 99.1613 48.8479 98.9985C49.0107 98.8356 49.0107 98.6728 49.0107 98.6728C48.5222 97.6959 48.3594 97.0446 48.0338 96.3932ZM42.172 98.0215C42.172 97.6959 42.3348 97.3702 42.4977 97.0445C42.6605 96.5561 42.9861 96.2304 43.4746 95.9048C43.8003 95.7419 44.4516 95.5791 44.9401 95.5791C45.4285 95.5791 45.917 95.7419 46.2427 95.9048C46.5683 96.2304 46.894 96.5561 47.0568 96.8817C47.2196 97.2074 47.2196 97.533 47.3825 97.8587H42.172V98.0215ZM62.5253 101.604C62.3625 101.441 62.3625 101.441 62.1997 101.441H61.874C61.5484 101.441 61.3855 101.278 61.2227 101.115C61.0599 100.79 61.0599 100.464 61.0599 100.138V91.8341C61.0599 91.6713 61.0599 91.5085 60.8971 91.3456C60.5714 91.1828 60.5714 91.1828 60.4086 91.1828C60.2457 91.1828 60.0829 91.1828 59.9201 91.3456C59.7573 91.5085 59.7573 91.5085 59.7573 91.8341V100.138C59.7573 100.627 59.9201 101.115 60.0829 101.441C60.2457 101.767 60.5714 102.092 60.8971 102.418C61.2227 102.581 61.5484 102.743 62.0368 102.743H61.874C62.0368 102.743 62.1997 102.743 62.3625 102.581C62.5253 102.418 62.5253 102.255 62.5253 102.092C62.6881 101.767 62.6881 101.604 62.5253 101.604ZM75.2258 96.3932C74.9001 95.7419 74.5745 95.2535 73.9232 94.9278C73.4347 94.6022 72.7834 94.4393 71.9692 94.4393C71.1551 94.4393 70.5038 94.6022 70.0153 94.9278C69.364 95.2535 69.0384 95.7419 68.7127 96.3932C68.3871 97.0446 68.2242 97.6959 68.2242 98.51C68.2242 99.3241 68.3871 99.9754 68.7127 100.627C69.0384 101.278 69.5268 101.767 70.1782 102.092C70.8295 102.418 71.4808 102.581 72.2949 102.581C72.7834 102.581 73.2719 102.418 73.7603 102.255C74.2488 102.092 74.7373 101.929 75.063 101.604C75.2258 101.441 75.2258 101.441 75.2258 101.278C75.2258 101.115 75.2258 100.952 75.063 100.952C74.9001 100.952 74.9001 100.79 74.7373 100.79C74.5745 100.79 74.4116 100.79 74.4116 100.952C74.2488 101.115 73.9232 101.278 73.5975 101.441C73.2719 101.604 72.9462 101.604 72.6206 101.604C71.9692 101.604 71.4808 101.441 71.1551 101.278C70.6666 100.952 70.341 100.627 70.1782 100.301C70.0153 99.9754 69.8525 99.487 69.8525 99.1613H75.7143C75.8771 99.1613 76.0399 99.1613 76.0399 98.9985C76.2027 98.8356 76.2027 98.6728 76.2027 98.6728C75.7143 97.6959 75.5514 97.0446 75.2258 96.3932ZM69.364 98.0215C69.364 97.6959 69.5269 97.3702 69.6897 97.0445C69.8525 96.5561 70.1782 96.2304 70.6666 95.9048C71.1551 95.7419 71.6436 95.5791 72.1321 95.5791C72.6206 95.5791 73.109 95.7419 73.4347 95.9048C73.7603 96.2304 74.086 96.5561 74.2488 96.8817C74.4116 97.2074 74.4116 97.533 74.5745 97.8587H69.364V98.0215ZM84.8325 91.3456C84.6697 91.1828 84.5069 91.1828 84.3441 91.1828C84.1812 91.1828 84.0184 91.1828 83.8556 91.3456C83.6928 91.5085 83.6928 91.6713 83.6928 91.8341V96.0676C83.3671 95.5791 82.8786 95.2535 82.3901 95.0906C82.0645 94.6022 81.4132 94.4393 80.7619 94.4393C79.9477 94.4393 79.2964 94.6022 78.808 94.9278C78.1567 95.2535 77.6682 95.7419 77.3425 96.3932C77.0169 97.0446 76.854 97.6959 76.854 98.51C76.854 99.3241 77.0169 99.9754 77.3425 100.627C77.6682 101.278 78.1567 101.767 78.808 102.092C79.4593 102.418 80.1106 102.581 80.9247 102.581C81.7388 102.581 82.3901 102.418 83.0414 102.092C83.6928 101.767 84.1812 101.278 84.5069 100.627C84.8325 99.9754 84.9954 99.3241 85.1582 98.51V91.6713C84.9954 91.5085 84.9954 91.3456 84.8325 91.3456ZM83.3671 100.138C83.0415 100.627 82.7158 100.952 82.3901 101.278C81.9017 101.604 81.576 101.604 80.9247 101.604C80.4362 101.604 79.9477 101.441 79.4593 101.278C78.9708 100.952 78.6451 100.627 78.4823 100.138C78.1567 99.6498 78.1567 99.1613 78.1567 98.51C78.1567 98.0215 78.3195 97.3702 78.4823 97.0445C78.808 96.5561 79.1336 96.2304 79.4593 96.0676C79.9477 95.7419 80.4362 95.7419 80.9247 95.7419C81.4132 95.7419 81.9017 95.9048 82.3901 96.0676C82.8786 96.3932 83.2043 96.7189 83.3671 97.0445C83.6928 97.533 83.6928 98.0215 83.6928 98.51C83.8556 99.1613 83.6928 99.6498 83.3671 100.138ZM99.6497 95.9048C99.9754 95.5791 100.464 95.5791 101.115 95.5791C101.929 95.5791 102.581 95.9048 103.069 96.5561C103.232 96.7189 103.232 96.7189 103.395 96.7189C103.558 96.7189 103.72 96.7189 103.72 96.7189C103.883 96.5561 104.046 96.5561 104.046 96.3932C104.046 96.2304 104.046 96.0676 103.883 95.9048C103.558 95.4163 103.069 95.0906 102.581 94.9278C102.092 94.765 101.604 94.6022 100.952 94.6022C100.138 94.6022 99.4869 94.765 98.9984 95.0906C98.3471 95.4163 98.0215 95.9048 97.533 96.5561C97.2074 97.2074 97.0445 97.8587 97.0445 98.6728C97.0445 99.4869 97.2074 100.138 97.533 100.79C97.8587 101.441 98.3471 101.929 98.9984 102.255C99.6497 102.581 100.301 102.743 101.115 102.743C102.255 102.743 103.069 102.418 103.72 101.767C103.883 101.604 103.883 101.441 103.883 101.441C103.883 101.278 103.72 101.115 103.72 101.115C103.558 101.115 103.395 100.952 103.395 100.952C103.232 100.952 103.069 100.952 102.906 101.115C102.743 101.278 102.418 101.441 102.092 101.604C101.766 101.767 101.441 101.767 101.115 101.767C100.627 101.767 100.138 101.604 99.6497 101.441C99.3241 101.115 98.8356 100.79 98.6728 100.301C98.51 99.8126 98.3471 99.3241 98.3471 98.8356C98.3471 98.1843 98.51 97.6959 98.6728 97.3702C98.9984 96.5561 99.3241 96.2304 99.6497 95.9048ZM123.422 94.765C123.26 94.6022 123.097 94.6022 122.934 94.6022C122.771 94.6022 122.608 94.6022 122.445 94.765C122.283 94.9278 122.283 95.0906 122.283 95.2535V101.929C122.283 102.092 122.283 102.255 122.445 102.418C122.608 102.581 122.771 102.581 122.934 102.581C123.097 102.581 123.26 102.581 123.422 102.418C123.585 102.255 123.585 102.092 123.585 101.929V95.2535C123.748 94.9278 123.585 94.765 123.422 94.765ZM123.585 91.6713C123.422 91.5085 123.26 91.3456 122.934 91.3456C122.771 91.3456 122.445 91.3456 122.283 91.6713C122.12 91.8341 121.957 91.9969 121.957 92.3226C121.957 92.4854 122.12 92.8111 122.283 92.9739C122.445 93.1367 122.608 93.2995 122.934 93.2995C123.097 93.2995 123.422 93.2995 123.585 92.9739C123.748 92.8111 123.911 92.6482 123.911 92.3226C123.911 91.9969 123.748 91.8341 123.585 91.6713ZM133.68 96.3932C133.355 95.7419 132.866 95.2535 132.215 94.9278C131.564 94.6022 130.912 94.4393 130.098 94.4393C129.284 94.4393 128.633 94.6022 127.982 94.9278C127.33 95.2535 126.842 95.7419 126.516 96.3932C126.19 97.0446 126.028 97.6959 126.028 98.51C126.028 99.3241 126.19 99.9754 126.516 100.627C126.842 101.278 127.33 101.767 127.982 102.092C128.633 102.418 129.284 102.581 130.098 102.581C130.912 102.581 131.564 102.418 132.215 102.092C132.866 101.767 133.355 101.278 133.68 100.627C134.006 99.9754 134.169 99.3241 134.169 98.51C134.169 97.6959 134.006 97.0446 133.68 96.3932ZM132.704 100.138C132.378 100.627 132.052 100.952 131.727 101.278C131.238 101.604 130.75 101.604 130.261 101.604C129.773 101.604 129.284 101.441 128.796 101.278C128.307 100.952 127.982 100.627 127.819 100.138C127.493 99.6498 127.493 99.1613 127.493 98.6728C127.493 98.1843 127.656 97.533 127.819 97.2074C127.982 96.7189 128.47 96.3932 128.796 96.2304C129.284 95.9048 129.773 95.9048 130.261 95.9048C130.75 95.9048 131.238 96.0676 131.727 96.2304C132.215 96.5561 132.541 96.8817 132.704 97.2074C132.866 97.6959 133.029 98.1843 133.029 98.6728C133.029 99.1613 132.866 99.6498 132.704 100.138ZM162.989 96.3932C162.664 95.7419 162.175 95.2535 161.524 94.9278C160.872 94.6022 160.221 94.4393 159.407 94.4393C158.593 94.4393 157.942 94.6022 157.29 94.9278C156.639 95.2535 156.151 95.7419 155.825 96.3932C155.499 97.0446 155.336 97.6959 155.336 98.51C155.336 99.3241 155.499 99.9754 155.825 100.627C156.151 101.278 156.639 101.767 157.29 102.092C157.942 102.418 158.593 102.581 159.407 102.581C160.221 102.581 160.872 102.418 161.524 102.092C162.175 101.767 162.664 101.278 162.989 100.627C163.315 99.9754 163.478 99.3241 163.478 98.51C163.478 97.6959 163.315 97.0446 162.989 96.3932ZM161.849 100.138C161.687 100.627 161.198 100.952 160.872 101.278C160.384 101.604 159.896 101.604 159.407 101.604C158.919 101.604 158.43 101.441 157.942 101.278C157.453 100.952 157.127 100.627 156.965 100.138C156.802 99.6498 156.639 99.1613 156.639 98.6728C156.639 98.1843 156.802 97.533 156.965 97.2074C157.29 96.7189 157.616 96.3932 157.942 96.2304C158.43 95.9048 158.919 95.9048 159.407 95.9048C159.896 95.9048 160.384 96.0676 160.872 96.2304C161.361 96.5561 161.687 96.8817 161.849 97.2074C162.175 97.6959 162.175 98.1843 162.175 98.6728C162.338 99.1613 162.175 99.6498 161.849 100.138ZM183.505 96.3932C183.18 95.7419 182.854 95.2535 182.203 94.9278C181.714 94.6022 181.063 94.4393 180.249 94.4393C179.435 94.4393 178.783 94.6022 178.295 94.9278C177.806 95.2535 177.318 95.7419 176.992 96.3932C176.667 97.0446 176.504 97.6959 176.504 98.51C176.504 99.3241 176.667 99.9754 176.992 100.627C177.318 101.278 177.806 101.767 178.458 102.092C179.109 102.418 179.76 102.581 180.574 102.581C181.063 102.581 181.551 102.418 182.04 102.255C182.528 102.092 183.017 101.929 183.343 101.604C183.505 101.441 183.505 101.441 183.505 101.278C183.505 101.115 183.505 100.952 183.343 100.952C183.18 100.952 183.18 100.79 183.017 100.79C182.854 100.79 182.691 100.79 182.691 100.952C182.528 101.115 182.203 101.278 181.877 101.441C181.551 101.604 181.226 101.604 180.9 101.604C180.412 101.604 179.76 101.441 179.435 101.278C178.946 100.952 178.621 100.627 178.458 100.301C178.295 99.9754 178.132 99.487 178.132 99.1613H183.994C184.157 99.1613 184.319 99.1613 184.319 98.9985C184.319 98.8356 184.482 98.6728 184.482 98.6728C183.994 97.6959 183.831 97.0446 183.505 96.3932ZM177.644 98.0215C177.644 97.6959 177.806 97.3702 177.969 97.0445C178.132 96.5561 178.458 96.2304 178.946 95.9048C179.435 95.7419 179.923 95.5791 180.412 95.5791C180.9 95.5791 181.389 95.7419 181.714 95.9048C182.04 96.2304 182.366 96.5561 182.528 96.8817C182.691 97.2074 182.854 97.533 182.854 97.8587H177.644V98.0215ZM192.135 94.9278C192.135 94.765 191.972 94.6022 191.81 94.6022C191.647 94.6022 191.484 94.6022 191.321 94.6022C191.158 94.6022 190.995 94.765 190.995 94.9278L188.227 100.79L185.459 94.9278C185.459 94.765 185.296 94.765 185.134 94.6022C184.971 94.6022 184.808 94.6022 184.645 94.6022C184.482 94.6022 184.319 94.765 184.319 94.9278C184.319 95.0906 184.319 95.2535 184.319 95.4163L187.576 102.255C187.739 102.581 187.902 102.581 188.227 102.581C188.553 102.581 188.716 102.418 188.879 102.255L192.135 95.4163C192.135 95.2535 192.135 95.0906 192.135 94.9278ZM200.114 96.3932C199.788 95.7419 199.3 95.2535 198.811 94.9278C198.323 94.6022 197.671 94.4393 196.857 94.4393C196.043 94.4393 195.392 94.6022 194.903 94.9278C194.252 95.2535 193.926 95.7419 193.601 96.3932C193.275 97.0446 193.112 97.6959 193.112 98.51C193.112 99.3241 193.275 99.9754 193.601 100.627C193.926 101.278 194.415 101.767 195.066 102.092C195.717 102.418 196.369 102.581 197.183 102.581C197.671 102.581 198.16 102.418 198.648 102.255C199.137 102.092 199.625 101.929 199.951 101.604C200.114 101.441 200.114 101.441 200.114 101.278C200.114 101.115 199.951 100.952 199.951 100.952C199.788 100.952 199.788 100.79 199.625 100.79C199.462 100.79 199.3 100.79 199.3 100.952C199.137 101.115 198.811 101.278 198.485 101.441C198.16 101.604 197.834 101.604 197.508 101.604C196.857 101.604 196.369 101.441 195.88 101.278C195.392 100.952 195.066 100.627 194.903 100.301C194.74 99.9754 194.578 99.487 194.578 99.1613H200.439C200.602 99.1613 200.765 99.1613 200.928 98.9985C201.091 98.8356 201.091 98.6728 201.091 98.6728C200.602 97.6959 200.439 97.0446 200.114 96.3932ZM194.089 98.0215C194.089 97.6959 194.252 97.3702 194.415 97.0445C194.578 96.5561 194.903 96.2304 195.392 95.9048C195.88 95.7419 196.369 95.5791 196.857 95.5791C197.346 95.5791 197.834 95.7419 198.16 95.9048C198.485 96.2304 198.811 96.5561 198.974 96.8817C199.137 97.2074 199.137 97.533 199.3 97.8587H194.089V98.0215ZM224.212 96.3932C223.886 95.7419 223.398 95.2535 222.747 94.9278C222.095 94.6022 221.444 94.4393 220.63 94.4393C219.816 94.4393 219.164 94.6022 218.513 94.9278C217.862 95.2535 217.373 95.7419 217.048 96.3932C216.722 97.0446 216.559 97.6959 216.559 98.51C216.559 99.3241 216.722 99.9754 217.048 100.627C217.373 101.278 217.862 101.767 218.513 102.092C219.164 102.418 219.816 102.581 220.63 102.581C221.444 102.581 222.095 102.418 222.747 102.092C223.398 101.767 223.886 101.278 224.212 100.627C224.538 99.9754 224.7 99.3241 224.7 98.51C224.7 97.6959 224.538 97.0446 224.212 96.3932ZM223.072 100.138C222.747 100.627 222.421 100.952 222.095 101.278C221.607 101.604 221.118 101.604 220.63 101.604C220.141 101.604 219.653 101.441 219.164 101.278C218.676 100.952 218.35 100.627 218.187 100.138C217.862 99.6498 217.862 99.1613 217.862 98.6728C217.862 98.1843 218.025 97.533 218.187 97.2074C218.513 96.7189 218.839 96.3932 219.164 96.2304C219.653 95.9048 220.141 95.9048 220.63 95.9048C221.118 95.9048 221.607 96.0676 222.095 96.2304C222.584 96.5561 222.909 96.8817 223.072 97.2074C223.235 97.6959 223.398 98.1843 223.398 98.6728C223.561 99.1613 223.398 99.6498 223.072 100.138ZM243.588 96.3932C243.263 95.7419 242.937 95.2535 242.286 94.9278C241.797 94.6022 241.146 94.4393 240.332 94.4393C239.518 94.4393 238.866 94.6022 238.378 94.9278C237.889 95.2535 237.401 95.7419 237.075 96.3932C236.75 97.0446 236.587 97.6959 236.587 98.51C236.587 99.3241 236.75 99.9754 237.075 100.627C237.401 101.278 237.889 101.767 238.541 102.092C239.192 102.418 239.843 102.581 240.657 102.581C241.146 102.581 241.634 102.418 242.123 102.255C242.611 102.092 243.1 101.929 243.426 101.604C243.588 101.441 243.588 101.441 243.588 101.278C243.588 101.115 243.588 100.952 243.426 100.952C243.263 100.952 243.263 100.79 243.1 100.79C242.937 100.79 242.774 100.79 242.774 100.952C242.611 101.115 242.286 101.278 241.96 101.441C241.634 101.604 241.309 101.604 240.983 101.604C240.495 101.604 239.843 101.441 239.518 101.278C239.029 100.952 238.704 100.627 238.541 100.301C238.378 99.9754 238.215 99.487 238.215 99.1613H244.077C244.24 99.1613 244.402 99.1613 244.402 98.9985C244.565 98.8356 244.565 98.6728 244.565 98.6728C244.077 97.6959 243.914 97.0446 243.588 96.3932ZM237.727 98.0215C237.727 97.6959 237.889 97.3702 238.052 97.0445C238.215 96.5561 238.541 96.2304 239.029 95.9048C239.518 95.7419 240.006 95.5791 240.495 95.5791C240.983 95.5791 241.472 95.7419 241.797 95.9048C242.123 96.2304 242.449 96.5561 242.611 96.8817C242.774 97.2074 242.774 97.533 242.937 97.8587H237.727V98.0215Z" fill="#005D8C"/>
<path d="M234.47 98.1844V101.929C234.47 102.092 234.47 102.255 234.307 102.418C234.145 102.581 233.982 102.581 233.819 102.581C233.656 102.581 233.493 102.581 233.33 102.418C233.168 102.255 233.168 102.092 233.168 101.929V98.1844C233.168 97.533 233.005 97.0446 232.842 96.7189C232.679 96.3933 232.353 96.0676 231.865 95.9048C231.539 95.742 231.051 95.5791 230.562 95.5791C230.074 95.5791 229.748 95.742 229.26 95.9048C228.934 96.0676 228.608 96.3933 228.446 96.5561C228.283 96.7189 228.12 97.2074 228.12 97.6959V101.929C228.12 102.092 228.12 102.255 227.957 102.418C227.794 102.581 227.632 102.581 227.469 102.581C227.306 102.581 227.143 102.581 226.98 102.418C226.817 102.255 226.817 102.092 226.817 101.929V95.0907C226.817 94.9278 226.817 94.765 226.98 94.6022C227.143 94.4393 227.306 94.4393 227.469 94.4393C227.632 94.4393 227.794 94.4393 227.957 94.6022C228.12 94.765 228.12 94.9278 228.12 95.0907V95.4163C228.283 95.0906 228.608 94.9278 228.934 94.765C229.423 94.4393 230.074 94.2765 230.725 94.2765C231.377 94.2765 232.028 94.4393 232.516 94.765C233.005 95.0907 233.493 95.4163 233.819 96.0676C234.307 96.7189 234.47 97.3702 234.47 98.1844Z" fill="#005D8C"/>
<path d="M215.908 95.4163L211.186 105.674C211.023 106 210.86 106 210.697 106C210.697 106 210.535 106 210.372 106C210.046 105.837 209.883 105.511 210.046 105.186L211.512 101.929L208.255 95.2534C208.255 95.0906 208.092 94.9278 208.255 94.765C208.255 94.6021 208.418 94.6021 208.581 94.4393C208.743 94.4393 208.906 94.4393 209.069 94.4393C209.232 94.4393 209.395 94.6021 209.395 94.765L212.163 100.627L214.768 94.765C214.931 94.4393 215.257 94.2765 215.582 94.4393C215.908 94.765 216.071 94.9278 215.908 95.4163Z" fill="#005D8C"/>
<path d="M207.604 95.2534C207.604 95.4163 207.441 95.4163 207.441 95.5791C207.278 95.5791 207.278 95.5791 207.115 95.5791C206.952 95.5791 206.789 95.5791 206.789 95.5791C206.138 95.5791 205.65 95.5791 205.161 95.7419C204.673 95.9047 204.347 96.0676 204.021 96.3932C203.696 96.7189 203.696 97.0445 203.696 97.533V101.929C203.696 102.092 203.696 102.255 203.533 102.418C203.37 102.581 203.207 102.581 203.044 102.581C202.882 102.581 202.719 102.581 202.556 102.418C202.393 102.255 202.393 102.092 202.393 101.929V95.0906C202.393 94.9278 202.393 94.765 202.556 94.6021C202.719 94.4393 202.882 94.4393 203.044 94.4393C203.207 94.4393 203.37 94.4393 203.533 94.6021C203.696 94.765 203.696 94.9278 203.696 95.0906V95.5791C204.021 95.2534 204.184 94.9278 204.673 94.765C205.161 94.4393 205.65 94.4393 206.301 94.4393C206.789 94.4393 207.115 94.4393 207.441 94.6021C207.604 94.765 207.604 95.0906 207.604 95.2534Z" fill="#005D8C"/>
<path d="M170.805 95.2534C170.805 95.4163 170.642 95.4163 170.642 95.5791C170.48 95.5791 170.48 95.5791 170.317 95.5791C170.154 95.5791 169.991 95.5791 169.991 95.5791C169.34 95.5791 168.851 95.5791 168.363 95.7419C167.874 95.9047 167.549 96.0676 167.223 96.3932C166.897 96.7189 166.897 97.0445 166.897 97.533V101.929C166.897 102.092 166.897 102.255 166.735 102.418C166.572 102.581 166.409 102.581 166.246 102.581C166.083 102.581 165.92 102.581 165.758 102.418C165.595 102.255 165.595 102.092 165.595 101.929V95.0906C165.595 94.9278 165.595 94.765 165.758 94.6021C165.92 94.4393 166.083 94.4393 166.246 94.4393C166.409 94.4393 166.572 94.4393 166.735 94.6021C166.897 94.765 166.897 94.9278 166.897 95.0906V95.5791C167.223 95.2534 167.386 94.9278 167.874 94.765C168.363 94.4393 168.851 94.4393 169.503 94.4393C169.991 94.4393 170.317 94.4393 170.642 94.6021C170.805 94.765 170.968 95.0906 170.805 95.2534Z" fill="#005D8C"/>
<path d="M152.243 94.4393V94.765H153.871C154.034 94.765 154.197 94.765 154.197 94.9278C154.36 95.0906 154.36 95.0906 154.36 95.2535C154.36 95.4163 154.36 95.5791 154.197 95.5791C154.034 95.7419 154.034 95.7419 153.871 95.7419H152.243V101.767C152.243 101.929 152.243 102.092 152.08 102.255C152.08 102.581 151.917 102.581 151.592 102.581C151.429 102.581 151.266 102.581 151.266 102.418C151.103 102.255 151.103 102.092 151.103 101.929V95.9048H150.289C150.126 95.9048 149.963 95.9048 149.801 95.7419C149.638 95.5791 149.638 95.4163 149.638 95.4163C149.638 95.2535 149.638 95.0906 149.801 95.0906C149.963 94.9278 150.126 94.9278 150.289 94.9278H151.103V94.6022C151.103 93.9508 151.266 93.2995 151.429 92.8111C151.754 92.3226 152.08 91.8341 152.569 91.6713C153.057 91.3456 153.546 91.1828 154.197 91.1828C154.36 91.1828 154.522 91.1828 154.685 91.3456C154.848 91.5085 154.848 91.6713 154.848 91.6713C154.848 91.8341 154.848 91.9969 154.685 92.1598C154.522 92.3226 154.36 92.3226 154.197 92.3226C153.871 92.3226 153.383 92.4854 153.22 92.6482C152.894 92.8111 152.731 93.1367 152.569 93.4624C152.406 93.6252 152.243 94.1137 152.243 94.4393Z" fill="#005D8C"/>
<path d="M143.938 98.1844V101.929C143.938 102.092 143.938 102.255 143.775 102.418C143.613 102.581 143.45 102.581 143.287 102.581C143.124 102.581 142.961 102.581 142.798 102.418C142.636 102.255 142.636 102.092 142.636 101.929V98.1844C142.636 97.533 142.473 97.0446 142.31 96.7189C142.147 96.3933 141.822 96.0676 141.496 95.9048C141.17 95.742 140.682 95.5791 140.193 95.5791C139.705 95.5791 139.379 95.742 138.891 95.9048C138.565 96.0676 138.239 96.3933 138.077 96.5561C137.914 96.7189 137.751 97.2074 137.751 97.6959V101.929C137.751 102.092 137.751 102.255 137.588 102.418C137.425 102.581 137.262 102.581 137.1 102.581C136.937 102.581 136.774 102.581 136.611 102.418C136.448 102.255 136.448 102.092 136.448 101.929V95.0907C136.448 94.9278 136.448 94.765 136.611 94.6022C136.774 94.4393 136.937 94.4393 137.1 94.4393C137.262 94.4393 137.425 94.4393 137.588 94.6022C137.751 94.765 137.751 94.9278 137.751 95.0907V95.4163C137.914 95.0906 138.239 94.9278 138.565 94.765C139.053 94.4393 139.705 94.2765 140.356 94.2765C141.007 94.2765 141.659 94.4393 142.147 94.765C142.636 95.0907 143.124 95.4163 143.45 96.0676C143.775 96.7189 143.938 97.3702 143.938 98.1844Z" fill="#005D8C"/>
<path d="M120.329 101.929C120.329 102.092 120.329 102.255 120.166 102.418C120.003 102.581 119.84 102.581 119.678 102.581H119.352C118.863 102.581 118.375 102.418 118.049 102.255C117.724 101.929 117.398 101.604 117.072 101.278C116.91 100.79 116.747 100.301 116.747 99.8126V95.9047H115.933C115.77 95.9047 115.607 95.9047 115.444 95.7419C115.281 95.5791 115.281 95.4162 115.281 95.4162C115.281 95.2534 115.281 95.0906 115.444 95.0906C115.607 94.9278 115.77 94.9278 115.933 94.9278H116.747V92.6482C116.747 92.4854 116.747 92.3225 116.91 92.1597C117.072 91.9969 117.235 91.9969 117.398 91.9969C117.561 91.9969 117.724 91.9969 117.886 92.1597C118.049 92.3225 118.049 92.4854 118.049 92.6482V94.9278H119.515C119.678 94.9278 119.84 94.9278 120.003 95.0906C120.166 95.2534 120.166 95.2534 120.166 95.4162C120.166 95.5791 120.166 95.7419 120.003 95.7419C119.84 95.9047 119.84 95.9047 119.515 95.9047H118.049V99.8126C118.049 100.301 118.212 100.627 118.375 100.952C118.701 101.278 119.026 101.441 119.352 101.441H119.84C120.003 101.441 120.166 101.441 120.166 101.604C120.329 101.604 120.329 101.766 120.329 101.929Z" fill="#005D8C"/>
<path d="M113.49 96.3932C113.164 95.7419 112.676 95.2534 112.025 94.9278C111.536 94.6021 110.722 94.4393 110.071 94.4393C109.257 94.4393 108.605 94.6021 107.954 94.9278C107.303 95.2534 106.814 95.7419 106.488 96.3932C106.163 97.0445 106 97.6958 106 98.51C106 99.3241 106.163 99.9754 106.488 100.627C106.814 101.278 107.303 101.766 107.954 102.092C108.605 102.418 109.257 102.581 109.908 102.581C110.559 102.581 111.21 102.418 111.862 102.092C112.35 101.766 112.676 101.604 113.002 101.115V101.929C113.002 102.092 113.002 102.255 113.164 102.418C113.327 102.581 113.49 102.581 113.653 102.581C113.816 102.581 113.978 102.581 114.141 102.418C114.304 102.255 114.304 102.092 114.304 101.929V98.51C114.141 97.8587 113.978 97.0445 113.49 96.3932ZM112.513 100.138C112.187 100.627 111.862 100.952 111.536 101.278C111.048 101.604 110.722 101.604 110.071 101.604C109.582 101.604 109.094 101.441 108.605 101.278C108.117 100.952 107.791 100.627 107.628 100.138C107.303 99.6497 107.303 99.1613 107.303 98.6728C107.303 98.1843 107.465 97.533 107.628 97.2074C107.954 96.7189 108.28 96.3932 108.605 96.0676C109.094 95.7419 109.582 95.7419 110.071 95.7419C110.559 95.7419 111.048 95.9047 111.536 96.0676C112.025 96.3932 112.35 96.7189 112.513 97.2074C112.839 97.6958 112.839 98.1843 112.839 98.6728C112.839 99.1613 112.676 99.6497 112.513 100.138Z" fill="#005D8C"/>
<path d="M94.9275 95.2535V102.092C94.9275 102.255 94.9275 102.418 94.7647 102.581C94.7647 102.581 94.6019 102.581 94.439 102.581C94.2762 102.581 94.1134 102.581 93.9506 102.418C93.7877 102.255 93.7877 102.092 93.7877 101.929V101.604C93.6249 101.929 93.2992 102.092 92.9736 102.255C92.3223 102.581 91.8338 102.581 91.1825 102.581C90.5312 102.581 89.8799 102.418 89.2286 102.092C88.7401 101.767 88.2516 101.441 87.926 100.79C87.6003 100.301 87.4375 99.4869 87.4375 98.6728V94.9278C87.4375 94.765 87.4375 94.6022 87.6003 94.4393C87.7632 94.2765 87.926 94.2765 88.0888 94.2765C88.2516 94.2765 88.4145 94.2765 88.5773 94.4393C88.7401 94.6022 88.7401 94.765 88.7401 94.9278V98.6728C88.7401 99.3241 88.9029 99.8126 89.0658 100.138C89.2286 100.464 89.5542 100.79 90.0427 100.952C90.3684 101.115 90.8569 101.278 91.3453 101.278C91.8338 101.278 92.1595 101.115 92.6479 100.952C93.1364 100.79 93.2993 100.464 93.4621 100.138C93.6249 99.8126 93.7877 99.4869 93.7877 98.9985V94.765C93.7877 94.6022 93.7877 94.4393 93.9506 94.2765C94.1134 94.1137 94.2762 94.1137 94.439 94.1137C94.6019 94.1137 94.7647 94.1137 94.9275 94.2765C94.9275 94.765 94.9275 94.9278 94.9275 95.2535Z" fill="#005D8C"/>
<path d="M57.315 96.3932C56.9893 95.7419 56.5008 95.2534 55.8495 94.9278C55.1982 94.6021 54.5469 94.4393 53.7328 94.4393C52.9186 94.4393 52.2673 94.6021 51.616 94.9278C50.9647 95.2534 50.4762 95.7419 50.1506 96.3932C49.8249 97.0445 49.6621 97.6958 49.6621 98.51C49.6621 99.3241 49.8249 99.9754 50.1506 100.627C50.4762 101.278 50.9647 101.766 51.616 102.092C52.2673 102.418 52.9186 102.581 53.5699 102.581C54.2213 102.581 54.8726 102.418 55.5239 102.092C55.8495 101.766 56.338 101.604 56.6636 101.115V101.929C56.6636 102.092 56.6636 102.255 56.8265 102.418C56.8265 102.581 56.9893 102.581 57.1521 102.581C57.3149 102.581 57.4778 102.581 57.6406 102.418C57.8034 102.255 57.8034 102.092 57.8034 101.929V98.51C57.8034 97.8587 57.6406 97.0445 57.315 96.3932ZM56.1752 100.138C55.8495 100.627 55.5239 100.952 55.1982 101.278C54.8726 101.604 54.3841 101.604 53.7328 101.604C53.2443 101.604 52.7558 101.441 52.2673 101.278C51.7789 100.952 51.4532 100.627 51.2904 100.138C50.9647 99.6497 50.9647 99.1613 50.9647 98.6728C50.9647 98.1843 51.1275 97.533 51.2904 97.2074C51.616 96.7189 51.9417 96.3932 52.2673 96.0676C52.7558 95.7419 53.2443 95.7419 53.7328 95.7419C54.2212 95.7419 54.7097 95.9047 55.1982 96.0676C55.6867 96.3932 56.0123 96.7189 56.1752 97.2074C56.338 97.6958 56.5008 98.1843 56.5008 98.6728C56.6636 99.1613 56.5008 99.6497 56.1752 100.138Z" fill="#005D8C"/>
<path d="M40.2183 95.2534C40.2183 95.4163 40.0554 95.4163 40.0554 95.5791C40.0554 95.5791 39.8926 95.5791 39.7298 95.5791C39.567 95.5791 39.567 95.5791 39.4041 95.5791C38.9156 95.5791 38.2643 95.5791 37.7759 95.7419C37.2874 95.9047 36.9617 96.0676 36.7989 96.3932C36.4733 96.7189 36.4732 97.0445 36.4732 97.533V101.929C36.4732 102.092 36.4732 102.255 36.3104 102.418C35.9848 102.581 35.8219 102.581 35.6591 102.581C35.4963 102.581 35.3335 102.581 35.1706 102.418C35.0078 102.255 35.0078 102.092 35.0078 101.929V95.0906C35.0078 94.9278 35.0078 94.765 35.1706 94.6021C35.3335 94.4393 35.4963 94.4393 35.6591 94.4393C35.8219 94.4393 35.9848 94.4393 36.1476 94.6021C36.3104 94.765 36.3104 94.9278 36.3104 95.0906V95.5791C36.6361 95.2534 36.7989 94.9278 37.2874 94.765C37.7759 94.4393 38.2643 94.4393 38.9156 94.4393C39.4041 94.4393 39.7298 94.4393 40.0554 94.6021C40.2183 94.765 40.2183 95.0906 40.2183 95.2534Z" fill="#005D8C"/>
<path d="M44.4516 69.364V76.5284C44.4516 79.2964 42.172 81.4132 39.5668 81.4132H8.14132C3.58218 81.4132 0 77.831 0 73.2719V34.1935C0 29.6344 3.58218 26.0522 8.14132 26.0522H38.427C41.1951 26.0522 43.3118 28.1689 43.3118 30.937V38.1013H19.5392C17.2596 38.1013 15.4685 39.8924 15.4685 42.172V47.3825H40.0553V59.106H15.4685V65.1305C15.4685 67.4101 17.2596 69.2012 19.5392 69.2012H44.4516V69.364Z" fill="#005D8C"/>
<path d="M125.376 81.4132V38.427H110.071C109.094 38.427 108.442 37.7757 108.442 36.7987V30.937C108.442 28.1689 110.559 26.0522 113.327 26.0522H153.057C155.825 26.0522 157.942 28.1689 157.942 30.937V36.7987C157.942 37.7757 157.29 38.427 156.313 38.427H141.008V81.4132H125.376Z" fill="#005D8C"/>
<path d="M275.34 79.7849C275.34 80.599 274.688 81.4132 273.711 81.4132H262.639C261.825 81.4132 261.011 80.7619 261.011 79.7849L260.848 52.1044L247.008 75.2258C246.682 75.7143 246.194 76.0399 245.542 76.0399H240.495C239.843 76.0399 239.355 75.7143 239.029 75.2258L225.352 52.9185V79.7849C225.352 80.599 224.701 81.4132 223.724 81.4132H212.489C211.512 81.4132 210.86 80.599 210.86 79.7849V30.937C210.86 28.1689 212.977 26.0522 215.745 26.0522H223.724L243.263 57.9662L262.314 26.0522H270.292C273.06 26.0522 275.177 28.1689 275.177 30.937L275.34 79.7849Z" fill="#005D8C"/>
<path d="M206.626 69.364V76.5284C206.626 79.2964 204.51 81.4132 201.742 81.4132H170.316C165.757 81.4132 162.175 77.831 162.175 73.2719V34.1935C162.175 29.6344 165.757 26.0522 170.316 26.0522H200.602C203.37 26.0522 205.487 28.1689 205.487 30.937V38.1013H181.714C179.434 38.1013 177.643 39.8924 177.643 42.172V47.3825H202.23V59.106H177.643V65.1305C177.643 67.4101 179.434 69.2012 181.714 69.2012H206.626V69.364Z" fill="#005D8C"/>
</svg>
