<svg width="28" height="31" viewBox="0 0 28 31" fill="none" xmlns="http://www.w3.org/2000/svg">
<path d="M9.68396 13.5352H18.316C19.5163 13.5352 20.2177 12.9492 20.2177 11.918V3.52734C20.2177 2.49609 19.5163 1.91016 18.316 1.91016H9.68396C8.48357 1.91016 7.78223 2.49609 7.78223 3.52734V11.918C7.78223 12.9492 8.48357 13.5352 9.68396 13.5352Z" fill="#005D8C"/>
<path d="M7.63391 22.0312H20.3796C23.0636 22.0312 24.8304 20.5078 24.8304 18.1875V7.24219C24.8304 4.92188 23.0636 3.41016 20.3796 3.41016H7.63391C4.9499 3.41016 3.16956 4.92188 3.16956 7.24219V18.1875C3.16956 20.5078 4.9499 22.0312 7.63391 22.0312Z" fill="white"/>
<path d="M7.4856 20.4375H20.528C22.106 20.4375 22.9962 19.6641 22.9962 18.3164V7.11328C22.9962 5.76562 22.106 5.00391 20.528 5.00391H7.4856C5.90756 5.00391 5.00391 5.76562 5.00391 7.11328V18.3164C5.00391 19.6641 5.90756 20.4375 7.4856 20.4375Z" fill="#005D8C"/>
<path d="M6.40656 30.9961H21.5934C25.6127 30.9961 28 28.9453 28 25.4766V12.1875C28 8.71875 25.6127 6.66797 21.5934 6.66797H6.40656C2.38729 6.66797 0 8.70703 0 12.1875V25.4766C0 28.9453 2.38729 30.9961 6.40656 30.9961Z" fill="white"/>
<path d="M6.40658 29.1094H21.5935C24.4123 29.1094 25.8286 27.8906 25.8286 25.4766V12.1875C25.8286 9.77344 24.4123 8.55469 21.5935 8.55469H6.40658C3.5877 8.55469 2.17151 9.76172 2.17151 12.1875V25.4766C2.17151 27.8906 3.5877 29.1094 6.40658 29.1094Z" fill="#005D8C"/>
<path d="M17.25 18.067C17.5833 18.2594 17.5833 18.7406 17.25 18.933L12 21.9641C11.6667 22.1566 11.25 21.916 11.25 21.5311L11.25 15.4689C11.25 15.084 11.6667 14.8434 12 15.0359L17.25 18.067Z" fill="white"/>
</svg>
