<svg width="121" height="122" viewBox="0 0 121 122" fill="none" xmlns="http://www.w3.org/2000/svg">
<path fill-rule="evenodd" clip-rule="evenodd" d="M82.1121 10.8159C85.735 7.03114 90.7858 4.71867 96.3288 4.71867C102.174 4.71867 107.464 7.28565 111.021 11.4049L111.039 11.4258C114.221 15.0142 116.158 19.7632 116.158 24.9166C116.158 26.5263 115.96 28.0748 115.569 29.5674L115.564 29.5844L115.559 29.6068C115.557 29.6145 115.555 29.6221 115.553 29.6298C115.552 29.6358 115.55 29.6418 115.549 29.6477C115.105 31.6535 114.314 33.6122 113.283 35.3097C113.276 35.3208 113.27 35.3319 113.263 35.3431C110.881 39.4307 107.067 42.593 102.541 44.0439C102.514 44.0525 102.487 44.0617 102.46 44.0714C100.57 44.7615 98.5131 45.1146 96.3288 45.1146C95.6502 45.1146 94.9804 45.0798 94.321 45.012C90.0326 44.5704 86.182 42.7282 83.1776 39.9351C83.1637 39.9222 83.1497 39.9095 83.1355 39.897C81.6578 38.5948 80.3788 37.0431 79.3988 35.3491L79.3925 35.3382L79.3763 35.3111C77.5457 32.2927 76.501 28.7112 76.501 24.9167C76.501 22.6867 76.8494 20.5607 77.4979 18.5318L77.5041 18.5121C77.5053 18.508 77.5065 18.504 77.5078 18.5C77.5102 18.492 77.5126 18.484 77.5149 18.476C78.4595 15.5754 80.0388 12.9742 82.1095 10.8185L82.1121 10.8159ZM74.2342 15.0835C75.3927 12.3892 77.0213 9.95083 79.0284 7.86117C83.4223 3.27176 89.5726 0.447937 96.3288 0.447937C103.438 0.447937 109.894 3.57179 114.244 8.60307C118.086 12.9418 120.428 18.6851 120.428 24.9166C120.428 26.8662 120.19 28.7659 119.71 30.6108C119.165 33.0511 118.206 35.4266 116.943 37.5103C114.429 41.8159 110.592 45.3015 105.969 47.3108C108.205 53.3747 109.447 59.9661 109.447 66.7917C109.447 97.2499 85.1877 121.969 55.147 121.969C25.1063 121.969 0.84668 97.2499 0.84668 66.7917C0.84668 36.3336 25.1063 11.6147 55.147 11.6147C61.8465 11.6147 68.2786 12.8255 74.2342 15.0835ZM72.8981 19.1447C67.3748 17.0259 61.3941 15.8854 55.147 15.8854C27.5317 15.8854 5.11741 38.6249 5.11741 66.7917C5.11741 83.1676 12.6937 97.7089 24.4635 107.014C26.1126 93.7941 39.4437 84.0303 54.926 84.0303C70.5318 84.0303 83.9466 93.9985 85.4249 107.331C97.426 98.0413 105.177 83.3549 105.177 66.7917C105.177 60.4509 104.016 54.328 101.929 48.7001C100.13 49.159 98.254 49.3854 96.3298 49.3854C95.4656 49.3854 94.613 49.3391 93.774 49.2488C88.5853 48.6907 83.9211 46.4504 80.2895 43.0823C78.4871 41.4898 76.9223 39.5937 75.7122 37.5068C73.4865 33.8292 72.2292 29.4894 72.2292 24.9166C72.2292 22.9261 72.4606 21.0012 72.8981 19.1447ZM55.147 117.698C45.3794 117.698 36.2625 114.853 28.5579 109.93C28.5612 109.881 28.5629 109.833 28.5629 109.783C28.5629 98.2559 39.9528 88.301 54.926 88.301C69.8958 88.301 81.2892 98.3088 81.2892 109.783C81.2892 109.922 81.3024 110.057 81.3275 110.188C73.71 114.953 64.7425 117.698 55.147 117.698ZM41.6319 57.9699C41.6319 50.4506 47.6174 44.4161 54.9264 44.4161C62.2353 44.4161 68.2208 50.4506 68.2208 57.9699C68.2208 65.4891 62.2353 71.5237 54.9264 71.5237C47.6174 71.5237 41.6319 65.4891 41.6319 57.9699ZM54.9264 40.1454C45.192 40.1454 37.3612 48.1594 37.3612 57.9699C37.3612 67.7804 45.192 75.7944 54.9264 75.7944C64.6608 75.7944 72.4916 67.7804 72.4916 57.9699C72.4916 48.1594 64.6608 40.1454 54.9264 40.1454ZM86.0121 24.8049C86.0121 23.6256 86.9681 22.6696 88.1474 22.6696H94.194V16.6534C94.194 15.4741 95.1501 14.5181 96.3294 14.5181C97.5087 14.5181 98.4648 15.4741 98.4648 16.6534V22.6696H104.511C105.69 22.6696 106.646 23.6256 106.646 24.8049C106.646 25.9843 105.69 26.9403 104.511 26.9403H98.4648V33.3475C98.4648 34.5269 97.5087 35.4829 96.3294 35.4829C95.1501 35.4829 94.194 34.5269 94.194 33.3475V26.9403H88.1474C86.9681 26.9403 86.0121 25.9843 86.0121 24.8049Z" fill="white" fill-opacity="0.72"/>
</svg>
